<svg xmlns="http://www.w3.org/2000/svg" width="24" height="22" viewBox="0 0 24 22" preserveAspectRatio="none"><style>.a{fill:none;stroke-width:0.5;stroke:#fff;}.b{fill:#fff;stroke-width:0.5;stroke:#fff;}</style><path d="M3 6.4c0.5 4 5.2 6.1 5.2 6.1l-3.5 2.2c0 0 2.3-0.2 4 1.2 0 0 2.6 1.9 2.2 2.5 -0.4 0.7-1.3 2.9 1.1 3" class="a"/><path d="M21 6.4c-0.4 4-5.2 6.1-5.2 6.1l3.5 2.2c0 0-2.3-0.2-4 1.2 0 0-2.6 1.9-2.2 2.5 0.4 0.7 1.3 2.9-1.1 3" class="a"/><path d="M5.2 18.9c-1.4-0.2-1.3 1.3-0.6 1.7 0.6 0.4 1.2 0 1.5-0.6 0.3-0.5 0.2-1.4 0-1.7 -0.2-0.4-0.5-1.1-2.2-2.2C2.1 14.8 0 15.1 0 15.1l3.5-2.2c0 0-2.9-2.1-2.9-6.2" class="a"/><path d="M18.8 18.9c1.4-0.2 1.3 1.3 0.6 1.7 -0.6 0.4-1.2 0-1.5-0.6 -0.3-0.5-0.2-1.4 0-1.7 0.2-0.4 0.5-1.1 2.2-2.2 1.8-1.2 3.9-0.9 3.9-0.9l-3.5-2.2c0 0 2.9-2.1 2.9-6.2" class="a"/><path d="M11.9 0.7c0 0-12.5-1.7-11.9 5.1C0.4 9.9 11.9 0.7 11.9 0.7z" class="a"/><path d="M12.1 0.7c0 0 12.5-1.7 11.9 5.1C23.6 9.9 12.1 0.7 12.1 0.7z" class="a"/><path d="M12.1 0.8c0 0 0.2 5.3-2.3 3.8C7.2 3 12.1 0.8 12.1 0.8z" class="a"/><path d="M12.2 0.8c0 0-0.7 5.3 2 3.9C16.8 3.4 12.2 0.8 12.2 0.8z" class="a"/><circle cx="12" cy="13.3" r="1.2" class="a"/><line x1="12" y1="12.1" x2="12" y2="0.5" class="a"/><path d="M8.7 8c0 0-2.5 0.2-1.6 1.3C8 10.3 8.7 8 8.7 8z" class="a"/><path d="M8.7 7.9c0 0-2.4 0.6-1.9-0.7C7.3 5.9 8.7 7.9 8.7 7.9z" class="a"/><path d="M12.1 2.9c0 0-0.4 2.4-1.1 3.5C10.3 7.5 9.3 7.9 7.9 8.1" class="a"/><circle cx="9.9" cy="9.9" r="0.2" class="a"/><path d="M12 7.3c0 0-0.3 1.7-1.9 2.5" class="a"/><path d="M15.3 8c0 0 2.5 0.2 1.6 1.3C16 10.3 15.3 8 15.3 8z" class="a"/><path d="M15.3 7.9c0 0 2.4 0.6 1.9-0.7C16.7 5.9 15.3 7.9 15.3 7.9z" class="a"/><path d="M12 2.9c0 0 0.4 2.4 1.1 3.5 0.7 1.1 1.7 1.5 3.1 1.7" class="a"/><circle cx="14.1" cy="9.9" r="0.2" class="a"/><path d="M12 7.3c0 0 0.3 1.7 2 2.5" class="a"/><path d="M4.2 5.9c0 0 0.2 4.8 5.6 5.8 0 0-1.1 2.9-1.8 3 0 0 3.3 1.4 4.1 3.2" class="a"/><path d="M19.8 5.9c0 0-0.2 4.8-5.6 5.8 0 0 1.1 2.9 1.8 3 0 0-3.3 1.4-4.1 3.2" class="a"/><circle cx="12" cy="18.2" r="0.3" class="a"/></svg>
