<svg version="1.1" xmlns="http://www.w3.org/2000/svg" xmlns:xlink="http://www.w3.org/1999/xlink" width="77" height="66" viewBox="0 0 77 66" enable-background="new 0 0 77 66">
	<g transform="matrix(1,0,0,-1,37.966102,1343.4237)">
		<path fill="#ef4136" stroke="#fff" stroke-width="6" d="M0.534,1278.139c-0.726,0-1.34,0.252-1.841,0.752l-26.116,25.195c-0.279,0.223-0.663,0.586-1.152,1.089
			c-0.488,0.502-1.262,1.416-2.322,2.741c-1.06,1.325-2.009,2.685-2.846,4.08c-0.837,1.395-1.583,3.083-2.239,5.065
			c-0.656,1.98-0.984,3.906-0.984,5.775c0,6.139,1.772,10.938,5.315,14.397c3.543,3.46,8.44,5.19,14.69,5.19
			c1.73,0,3.495-0.3,5.295-0.9c1.799-0.6,3.474-1.408,5.022-2.427c1.548-1.018,2.881-1.974,3.997-2.866
			c1.116-0.893,2.176-1.841,3.181-2.847c1.004,1.005,2.064,1.954,3.182,2.847c1.115,0.892,2.447,1.848,3.996,2.866
			c1.549,1.019,3.223,1.828,5.022,2.427c1.8,0.601,3.565,0.9,5.295,0.9c6.25,0,11.147-1.729,14.688-5.19
			c3.545-3.459,5.316-8.258,5.316-14.397c0-6.166-3.193-12.444-9.584-18.833l-26.074-25.112
			C1.873,1278.391,1.259,1278.139,0.534,1278.139"/>
	</g>
</svg>
