<svg xmlns="http://www.w3.org/2000/svg" width="100%" height="100%" viewBox="0 0 232 122" preserveAspectRatio="none"><style>.a{fill:#6D6E71;stroke:#6D6E71;}.b{fill:none;stroke:#58595B;}.c{fill:#F15A29;stroke:#58595B;}.d{fill:#F7941E;stroke:#58595B;}.e{fill:#FBB040;stroke:#58595B;}.f{fill:#EF4136;stroke:#58595B;}.g{fill:#58595B;stroke-width:0.5;stroke:#58595B;}.h{fill:#58595B;}</style><path d="M85.9 81.2h13.8c0 0-9.3 7.7-15.2 12.2 -5.9 4.6-18.4 14.6-24.3 19 0 0-25.2 19.4-4.9-1.4C75.5 90.2 85.9 81.2 85.9 81.2z" class="a"/><path d="M131.2 81.7h16.5c0 0 12.4 9.9 19.2 16.2 6.9 6.3 12.3 11.3 16.9 16.1 4.6 4.8 7.6 9.3 0 3.7 -7.6-5.6-25.8-18.8-29.2-21.2C151.2 94 131.2 81.7 131.2 81.7z" class="a"/><path d="M97.7 38.6C96.2 37.5 85.3 27.2 84 25.2c-1.3-2-4.6-10-9.9-14.7 -5.3-4.6-17.4-7.5-21.4-7.8s-11.7-0.6-17.4 3.2c-5.7 3.8 0.9 1.8 0.9 1.8s7.8-2.2 10.8-2.4 4.1 1.6 4.1 1.6c1.5 0.8-1.2 4.8-0.5 12.2 0.7 7.4 12.6 11.8 16.2 12.1 3.6 0.3 9.1-2.3 10.7-2.6 1.6-0.3 5 2.6 7.6 4.5 2.6 1.9 8.3 8.5 8.3 8.5h7.5C100.8 41.4 99.2 39.6 97.7 38.6zM75.9 23.9c-2 4.2-8.6 5.1-14.7 2.2s-9.5-8.7-7.4-12.9c2-4.2 8.6-5.1 14.7-2.2S77.9 19.7 75.9 23.9z" class="a"/><path d="M184.8 6.4c-2.8-4.1-12.5-4-17.6-4s-5.4-0.5-9.9-1c-4.5-0.5-0.6 4.6 0.3 6.2 1 1.6 0.2 5.6-1.3 12.5s-5.1 7.4-10.6 12.4c-5.4 5.1-7.2 4.8-7.2 4.8h-3.7v5.1l8.7 0.2c0 0 9.3-10.1 12.2-12.2 2.9-2.1 4.5-0.9 11.5-1.6 7-0.7 12.2-2.5 17-8C189.2 15.2 186 8.1 184.8 6.4zM175.8 23.8c-5.8 2.8-12.3 1.3-14.6-3.3 -2.3-4.7 0.6-10.7 6.3-13.6 5.8-2.8 12.3-1.3 14.6 3.3S181.6 21 175.8 23.8z" class="a"/><rect x="59.6" y="40.5" width="112.6" height="44.3" fill="#FFF"/><path d="M214.9 63.3c0 0-30.9 21.1-30.9 0C184 42.3 214.9 63.3 214.9 63.3z" class="b"/><path d="M200.1 84.9c0 0-17-10.1-12.5-14.1C192 66.8 200.1 84.9 200.1 84.9z" class="c"/><path d="M183.2 65.7c0 0 12.6 3.2 10.2 6.9C191 76.2 183.2 65.7 183.2 65.7z" class="d"/><path d="M183.3 65.7c0 0 0.9 13.4 4.8 11.6C191.9 75.4 183.3 65.7 183.3 65.7z" class="d"/><circle cx="205.8" cy="91.9" r="1.4" class="e"/><line x1="199.5" y1="84.4" x2="204.8" y2="90.9" class="b"/><circle cx="213" cy="77" r="1.4" class="e"/><circle cx="213" cy="49.2" r="1.4" class="e"/><path d="M200.1 42.4c0 0-17 10.1-12.5 14.1C192 60.5 200.1 42.4 200.1 42.4z" class="c"/><path d="M183.2 61.6c0 0 12.6-3.2 10.2-6.9C191 51.1 183.2 61.6 183.2 61.6z" class="d"/><path d="M183.3 61.6c0 0 0.9-13.4 4.8-11.6C191.9 51.9 183.3 61.6 183.3 61.6z" class="d"/><circle cx="205.8" cy="35.3" r="1.4" class="e"/><line x1="199.5" y1="42.8" x2="204.8" y2="36.3" class="b"/><line x1="228.3" y1="63.3" x2="184" y2="63.3" class="b"/><path d="M178 63.5c0 0-5.3 3.6-5.3 0C172.7 59.9 178 63.5 178 63.5z" class="d"/><path d="M178.8 63.5c0 0 11.4-7.8 12.6-3.6C192.6 64.1 178.8 63.5 178.8 63.5z" class="f"/><path d="M178.8 63.5c0 0 11.4 7.8 12.6 3.6C192.6 62.9 178.8 63.5 178.8 63.5z" class="f"/><circle cx="229.1" cy="63.3" r="1.4" class="e"/><path d="M220.1 63.4c0 0 6.4-0.6 4.6 2.6C223 69.1 220.1 63.4 220.1 63.4z" class="c"/><path d="M220.1 63.3c0 0 6.4 0.6 4.6-2.6C223 57.6 220.1 63.3 220.1 63.3z" class="c"/><path d="M177.5 63.1c0 0 3.9-2.9 4.3-7.9 0.4-4.8-0.8-6.2-1.4-7.2 -0.5-0.9-2.2-2.1-3.9-2.1 -2.3 0-3.4 0.8-3.8 2.5 -0.3 1.1 0.5 3.2 1.9 3.9" class="b"/><path d="M174.1 52.1c0 0 4.7 4.3 1.2 5.1C171.8 58 174.1 52.1 174.1 52.1z" class="c"/><path d="M174.2 52c0 0 3.9 5.1 5 1.7C180.3 50.3 174.2 52 174.2 52z" class="c"/><path d="M177.5 63.8c0 0 3.9 2.9 4.3 7.9 0.4 4.8-0.8 6.2-1.4 7.2 -0.5 0.9-2.2 2.1-3.9 2.1 -2.3 0-3.4-0.8-3.8-2.5 -0.3-1.1 0.5-3.2 1.9-3.9" class="b"/><path d="M174.1 74.8c0 0 4.7-4.3 1.2-5.1C171.8 68.8 174.1 74.8 174.1 74.8z" class="c"/><path d="M174.2 74.9c0 0 3.9-5.1 5-1.7C180.3 76.6 174.2 74.9 174.2 74.9z" class="c"/><path d="M203.4 50.2c0 0-0.3-6.4 2.8-4.5C209.3 47.6 203.4 50.2 203.4 50.2z" class="f"/><path d="M203.3 50.2c0 0 0.9-6.3-2.4-4.7C197.8 47.1 203.3 50.2 203.3 50.2z" class="f"/><path d="M191.4 60.4c0 0 6-1.7 8.7-3.9 2.6-2.1 3.4-4.8 3.4-8.5 0-1.9-0.4-4.8-1.7-7 -1.3-2.2-2.4-3.1-4-4 -2.2-1.3-4.9-1.7-7.2-0.8 -1.5 0.6-2.8 2.1-2.4 4.8 0.4 3 3.1 3.2 4.1 3 1-0.2 2.5-1.7 1.2-3 -1.1-1.2-2-0.5-2-0.5" class="b"/><circle cx="191.3" cy="40.4" r="0.4" class="g"/><path d="M203.4 76.5c0 0-0.3 6.4 2.8 4.5S203.4 76.5 203.4 76.5z" class="f"/><path d="M203.3 76.5c0 0 0.9 6.3-2.4 4.7C197.8 79.6 203.3 76.5 203.3 76.5z" class="f"/><path d="M191.4 66.3c0 0 6 1.7 8.7 3.9 2.6 2.1 3.4 4.8 3.4 8.5 0 1.9-0.4 4.8-1.7 7 -1.3 2.2-2.4 3.1-4 4 -2.2 1.3-4.9 1.7-7.2 0.8 -1.5-0.6-2.8-2.1-2.4-4.8 0.4-3 3.1-3.2 4.1-3 1 0.2 2.5 1.7 1.2 3 -1.1 1.2-2 0.5-2 0.5" class="b"/><circle cx="191.3" cy="86.3" r="0.4" class="g"/><path d="M177.3 40.3c0 0-6-5.4-1.5-6.5S177.3 40.3 177.3 40.3z" class="e"/><path d="M177.2 40.4c0 0-4.9-6.4-6.3-2.1C169.5 42.6 177.2 40.4 177.2 40.4z" class="e"/><path d="M177.5 85.7c0 0-5.4 6-6.5 1.5C170 82.8 177.5 85.7 177.5 85.7z" class="e"/><path d="M177.6 85.8c0 0-6.4 4.9-2.1 6.3C179.8 93.6 177.6 85.8 177.6 85.8z" class="e"/><circle cx="182.8" cy="46.3" r="1.4" class="e"/><circle cx="183.3" cy="80.4" r="1.4" class="e"/><circle cx="177.7" cy="40.7" r="0.7" class="c"/><circle cx="179.9" cy="43.3" r="0.9" class="d"/><circle cx="179.9" cy="83.1" r="0.9" class="d"/><circle cx="177.8" cy="85.4" r="0.7" class="c"/><circle cx="217.2" cy="55.8" r="0.4" class="g"/><path d="M207.1 63.3c0 0 4.2 0.4 7.6-2 3.2-2.2 3.7-3.5 4.1-4.4 0.4-0.7 0.5-2.3-0.1-3.2 -0.7-1.1-1.9-1.6-3-0.9 -1.3 0.8-1.4 3.6 1.3 3.1" class="b"/><circle cx="217.2" cy="70.9" r="0.4" class="g"/><path d="M207.1 63.3c0 0 4.2-0.4 7.6 2 3.2 2.2 3.7 3.5 4.1 4.4 0.4 0.7 0.5 2.3-0.1 3.2 -0.7 1.1-1.9 1.6-3 0.9 -1.3-0.8-1.4-3.6 1.3-3.1" class="b"/><path d="M197.4 63.3c0 0 10.9-2.3 15.2-12.7" class="b"/><path d="M197.2 63.3c0 0 10.9 2.3 15.2 12.7" class="b"/><circle cx="168" cy="37.4" r="0.4" class="g"/><path d="M168 37.6c-0.1 1.3-1.4 1-1.7 0.9 -1.4-0.5-1.1-2.4-0.1-3 1.2-0.7 2.6-0.3 3.2 0.3 0.6 0.7 0.7 1.4 0.6 1.9 0 0.3-0.2 2.9-3.9 2.8 -4.8-0.1-14.3-0.1-14.3-0.1h-29.2" class="b"/><circle cx="168" cy="87.9" r="0.4" class="g"/><path d="M168 87.7c-0.1-1.3-1.4-1-1.7-0.9 -1.4 0.5-1.1 2.4-0.1 3 1.2 0.7 2.6 0.3 3.2-0.3 0.6-0.7 0.7-1.4 0.6-1.9 0-0.3-0.2-2.9-3.9-2.8 -4.8 0.1-14.3 0.1-14.3 0.1h-29.2" class="b"/><path d="M17.1 63.3c0 0 30.9 21.1 30.9 0C48 42.2 17.1 63.3 17.1 63.3z" class="b"/><path d="M31.9 84.9c0 0 17-10.1 12.5-14.1C40 66.8 31.9 84.9 31.9 84.9z" class="c"/><path d="M48.8 65.7c0 0-12.6 3.2-10.2 6.9C41 76.2 48.8 65.7 48.8 65.7z" class="d"/><path d="M48.7 65.7c0 0-0.9 13.4-4.8 11.6C40.1 75.4 48.7 65.7 48.7 65.7z" class="d"/><circle cx="26.2" cy="91.9" r="1.4" class="e"/><line x1="32.5" y1="84.4" x2="27.2" y2="90.9" class="b"/><circle cx="19" cy="77" r="1.4" class="e"/><circle cx="19" cy="49.2" r="1.4" class="e"/><path d="M31.9 42.3c0 0 17 10.1 12.5 14.1C40 60.4 31.9 42.3 31.9 42.3z" class="c"/><path d="M48.8 61.5c0 0-12.6-3.2-10.2-6.9S48.8 61.5 48.8 61.5z" class="d"/><path d="M48.7 61.6c0 0-0.9-13.4-4.8-11.6C40.1 51.9 48.7 61.6 48.7 61.6z" class="d"/><circle cx="26.2" cy="35.3" r="1.4" class="e"/><line x1="32.5" y1="42.8" x2="27.2" y2="36.3" class="b"/><line x1="3.7" y1="63.3" x2="48" y2="63.3" class="b"/><path d="M54 63.5c0 0 5.3 3.6 5.3 0C59.3 59.9 54 63.5 54 63.5z" class="d"/><path d="M53.2 63.5c0 0-11.4-7.8-12.6-3.6C39.4 64.1 53.2 63.5 53.2 63.5z" class="f"/><path d="M53.2 63.5c0 0-11.4 7.8-12.6 3.6C39.4 62.9 53.2 63.5 53.2 63.5z" class="f"/><circle cx="2.9" cy="63.3" r="1.4" class="e"/><path d="M11.9 63.3c0 0-6.4-0.6-4.6 2.6C9 69.1 11.9 63.3 11.9 63.3z" class="c"/><path d="M11.9 63.3c0 0-6.4 0.6-4.6-2.6C9 57.5 11.9 63.3 11.9 63.3z" class="c"/><path d="M54.5 63.1c0 0-3.9-2.9-4.3-7.9 -0.4-4.8 0.8-6.2 1.4-7.2 0.5-0.9 2.2-2.1 3.9-2.1 2.3 0 3.4 0.8 3.8 2.5 0.3 1.1-0.5 3.2-1.9 3.9" class="b"/><path d="M57.9 52.1c0 0-4.7 4.3-1.2 5.1C60.2 58 57.9 52.1 57.9 52.1z" class="c"/><path d="M57.8 52c0 0-3.9 5.1-5 1.7C51.7 50.3 57.8 52 57.8 52z" class="c"/><path d="M54.5 63.8c0 0-3.9 2.9-4.3 7.9 -0.4 4.8 0.8 6.2 1.4 7.2 0.5 0.9 2.2 2.1 3.9 2.1 2.3 0 3.4-0.8 3.8-2.5 0.3-1.1-0.5-3.2-1.9-3.9" class="b"/><path d="M57.9 74.8c0 0-4.7-4.3-1.2-5.1C60.2 68.8 57.9 74.8 57.9 74.8z" class="c"/><path d="M57.8 74.8c0 0-3.9-5.1-5-1.7C51.7 76.6 57.8 74.8 57.8 74.8z" class="c"/><path d="M28.6 50.2c0 0 0.3-6.4-2.8-4.5C22.7 47.6 28.6 50.2 28.6 50.2z" class="f"/><path d="M28.7 50.2c0 0-0.9-6.3 2.4-4.7S28.7 50.2 28.7 50.2z" class="f"/><path d="M40.6 60.4c0 0-6-1.7-8.7-3.9 -2.6-2.1-3.4-4.8-3.4-8.5 0-1.9 0.4-4.8 1.7-7 1.3-2.2 2.4-3.1 4-4 2.2-1.3 4.9-1.7 7.2-0.8 1.5 0.6 2.8 2.1 2.4 4.8 -0.4 3-3.1 3.2-4.1 3 -1-0.2-2.5-1.7-1.2-3 1.1-1.2 2-0.5 2-0.5" class="b"/><circle cx="40.7" cy="40.4" r="0.4" class="g"/><path d="M28.6 76.5c0 0 0.3 6.4-2.8 4.5C22.7 79.1 28.6 76.5 28.6 76.5z" class="f"/><path d="M28.7 76.5c0 0-0.9 6.3 2.4 4.7C34.2 79.6 28.7 76.5 28.7 76.5z" class="f"/><path d="M40.6 66.3c0 0-6 1.7-8.7 3.9 -2.6 2.1-3.4 4.8-3.4 8.5 0 1.9 0.4 4.8 1.7 7 1.3 2.2 2.4 3.1 4 4 2.2 1.3 4.9 1.7 7.2 0.8 1.5-0.6 2.8-2.1 2.4-4.8 -0.4-3-3.1-3.2-4.1-3 -1 0.2-2.5 1.7-1.2 3 1.1 1.2 2 0.5 2 0.5" class="b"/><circle cx="40.7" cy="86.3" r="0.4" class="g"/><path d="M54.7 40.3c0 0 6-5.4 1.5-6.5C51.8 32.8 54.7 40.3 54.7 40.3z" class="e"/><path d="M54.8 40.4c0 0 4.9-6.4 6.3-2.1C62.5 42.6 54.8 40.4 54.8 40.4z" class="e"/><path d="M54.5 85.7c0 0 5.4 6 6.5 1.5S54.5 85.7 54.5 85.7z" class="e"/><path d="M54.4 85.8c0 0 6.4 4.9 2.1 6.3C52.2 93.5 54.4 85.8 54.4 85.8z" class="e"/><circle cx="49.2" cy="46.3" r="1.4" class="e"/><circle cx="48.8" cy="80.4" r="1.4" class="e"/><circle cx="54.3" cy="40.7" r="0.7" class="c"/><circle cx="52.1" cy="43.3" r="0.9" class="d"/><circle cx="52.1" cy="83.1" r="0.9" class="d"/><circle cx="54.2" cy="85.4" r="0.7" class="c"/><circle cx="14.8" cy="55.8" r="0.4" class="g"/><path d="M24.9 63.3c0 0-4.2 0.4-7.6-2 -3.2-2.2-3.7-3.5-4.1-4.4 -0.4-0.7-0.5-2.3 0.1-3.2 0.7-1.1 1.9-1.6 3-0.9 1.3 0.8 1.4 3.6-1.3 3.1" class="b"/><circle cx="14.8" cy="70.8" r="0.4" class="g"/><path d="M24.9 63.3c0 0-4.2-0.4-7.6 2 -3.2 2.2-3.7 3.5-4.1 4.4 -0.4 0.7-0.5 2.3 0.1 3.2 0.7 1.1 1.9 1.6 3 0.9 1.3-0.8 1.4-3.6-1.3-3.1" class="b"/><path d="M34.6 63.3c0 0-10.9-2.3-15.2-12.7" class="b"/><path d="M34.8 63.3c0 0-10.9 2.3-15.2 12.7" class="b"/><circle cx="64" cy="87.9" r="0.4" class="g"/><path d="M64 87.7c0.1-1.3 1.4-1 1.7-0.9 1.4 0.5 1.1 2.4 0.1 3 -1.2 0.7-2.6 0.3-3.2-0.3 -0.6-0.7-0.7-1.4-0.6-1.9 0-0.3 0.2-2.9 3.9-2.8 4.8 0.1 14.3 0.1 14.3 0.1h29.7" class="b"/><circle cx="64" cy="37.4" r="0.4" class="g"/><path d="M64 37.6c0.1 1.3 1.4 1 1.7 0.9 1.4-0.5 1.1-2.4 0.1-3 -1.2-0.7-2.6-0.3-3.2 0.3 -0.6 0.7-0.7 1.4-0.6 1.9 0 0.3 0.2 2.9 3.9 2.8 4.8-0.1 14.3-0.1 14.3-0.1h29.7" class="b"/><path d="M124.2 18.5c1.7 0.2 1.5-1.5 0.7-2 -0.7-0.4-1.4 0-1.8 0.7 -0.3 0.6-0.2 1.6 0 2.1 0.3 0.5 0.6 1.3 2.6 2.7 2.2 1.4 4.7 1.1 4.7 1.1l-4.2 2.7c0 0 4.5 3.3 3.2 9.4" class="b"/><circle cx="133.5" cy="29.6" r="0.8" class="f"/><path d="M131 38.9c0 0 4.7-3.3 3-8.6" class="b"/><circle cx="131" cy="38.9" r="0.4" class="g"/><path d="M108 18.5c-1.7 0.2-1.5-1.5-0.7-2 0.7-0.4 1.4 0 1.8 0.7 0.3 0.6 0.2 1.6 0 2.1 -0.3 0.5-0.6 1.3-2.6 2.7 -2.2 1.4-4.7 1.1-4.7 1.1l4.2 2.7c0 0-4.5 3.3-3.2 9.4" class="b"/><path d="M126.6 35.6c1.3-6.2-6.1-9.4-6.1-9.4l4.2-2.7c0 0-2.8 0.2-4.7-1.5 0 0-3.2-2.2-2.7-3 0.5-0.8 1.6-3.5-1.4-3.6" class="b"/><path d="M105.2 35.6c-1.3-6.2 6.1-9.4 6.1-9.4l-4.2-2.7c0 0 2.8 0.2 4.7-1.5 0 0 3.2-2.2 2.7-3 -0.5-0.8-1.6-3.5 1.4-3.6" class="b"/><circle cx="116.1" cy="25.2" r="1.4" class="e"/><line x1="116.1" y1="26.6" x2="116.1" y2="40.5" class="b"/><circle cx="98.8" cy="29.8" r="0.8" class="f"/><path d="M101.3 39c0 0-4.7-3.3-3-8.6" class="b"/><circle cx="101.3" cy="39" r="0.4" class="g"/><path d="M116.1 40.3c0 0 15 2.1 14.2-6.1C129.9 29.2 116.1 40.3 116.1 40.3z" class="e"/><path d="M116 40.3c0 0-15 2.1-14.2-6.1C102.2 29.2 116 40.3 116 40.3z" class="e"/><path d="M116 40.1c0 0-0.3-6.4 2.8-4.5C121.9 37.5 116 40.1 116 40.1z" class="f"/><path d="M115.9 40.1c0 0 0.9-6.3-2.4-4.7C110.4 37 115.9 40.1 115.9 40.1z" class="f"/><path d="M125.3 34c0 0-0.2-5.8-6.7-7 0 0 1.3-3.5 2.2-3.5 0 0-3.9-1.6-4.9-3.8" class="b"/><path d="M106.6 34c0 0 0.2-5.8 6.7-7 0 0-1.3-3.5-2.2-3.5 0 0 3.9-1.6 4.9-3.8" class="b"/><path d="M120 31.6c0 0 2.9-0.2 1.9-1.5C120.9 28.8 120 31.6 120 31.6z" class="c"/><path d="M120 31.6c0 0 2.8-0.7 2.3 0.8C121.7 34 120 31.6 120 31.6z" class="c"/><path d="M116 37.6c0 0 0.4-2.8 1.3-4.2 0.8-1.3 2-1.8 3.7-2" class="b"/><circle cx="118.6" cy="29.2" r="0.3" class="b"/><path d="M116.1 32.3c0 0 0.3-2.1 2.3-2.9" class="b"/><path d="M112.1 31.6c0 0-2.9-0.2-1.9-1.5C111.2 28.8 112.1 31.6 112.1 31.6z" class="c"/><path d="M112.1 31.6c0 0-2.8-0.7-2.3 0.8S112.1 31.6 112.1 31.6z" class="c"/><path d="M116.1 37.6c0 0-0.4-2.8-1.3-4.2 -0.8-1.3-2-1.8-3.7-2" class="b"/><circle cx="113.5" cy="29.2" r="0.3" class="b"/><path d="M116 32.3c0 0-0.3-2.1-2.3-2.9" class="b"/><circle cx="116" cy="19.4" r="0.4" class="g"/><path d="M124.2 106.8c1.7-0.2 1.5 1.5 0.7 2 -0.7 0.4-1.4 0-1.8-0.7 -0.3-0.6-0.2-1.6 0-2.1 0.3-0.5 0.6-1.3 2.6-2.7 2.2-1.4 4.7-1.1 4.7-1.1l-4.2-2.7c0 0 4.5-3.3 3.2-9.4" class="b"/><circle cx="133" cy="95.7" r="0.8" class="f"/><path d="M130.5 86.4c0 0 4.7 3.3 3 8.6" class="b"/><circle cx="130.5" cy="86.4" r="0.4" class="g"/><path d="M108 106.8c-1.7-0.2-1.5 1.5-0.7 2 0.7 0.4 1.4 0 1.8-0.7 0.3-0.6 0.2-1.6 0-2.1 -0.3-0.5-0.6-1.3-2.6-2.7 -2.2-1.4-4.7-1.1-4.7-1.1l4.2-2.7c0 0-4.5-3.3-3.2-9.4" class="b"/><path d="M126.6 89.7c1.3 6.2-6.1 9.4-6.1 9.4l4.2 2.7c0 0-2.8-0.2-4.7 1.5 0 0-3.2 2.2-2.7 3 0.5 0.8 1.6 3.5-1.4 3.6" class="b"/><path d="M105.2 89.7c-1.3 6.2 6.1 9.4 6.1 9.4l-4.2 2.7c0 0 2.8-0.2 4.7 1.5 0 0 3.2 2.2 2.7 3 -0.5 0.8-1.6 3.5 1.4 3.6" class="b"/><circle cx="116.1" cy="100.1" r="1.4" class="e"/><line x1="116.1" y1="98.7" x2="116.1" y2="84.8" class="b"/><circle cx="98.8" cy="95.5" r="0.8" class="f"/><path d="M101.3 86.3c0 0-4.7 3.3-3 8.6" class="b"/><circle cx="101.3" cy="86.2" r="0.4" class="g"/><path d="M116.1 85c0 0 15-2.1 14.2 6.1C129.9 96 116.1 85 116.1 85z" class="e"/><path d="M116 85c0 0-15-2.1-14.2 6.1C102.2 96 116 85 116 85z" class="e"/><path d="M116 85.1c0 0-0.3 6.4 2.8 4.5C121.9 87.7 116 85.1 116 85.1z" class="f"/><path d="M115.9 85.2c0 0 0.9 6.3-2.4 4.7C110.4 88.3 115.9 85.2 115.9 85.2z" class="f"/><path d="M125.3 91.3c0 0-0.2 5.8-6.7 7 0 0 1.3 3.5 2.2 3.5 0 0-3.9 1.6-4.9 3.8" class="b"/><path d="M106.6 91.3c0 0 0.2 5.8 6.7 7 0 0-1.3 3.5-2.2 3.5 0 0 3.9 1.6 4.9 3.8" class="b"/><path d="M120 93.7c0 0 2.9 0.2 1.9 1.5C120.8 96.5 120 93.7 120 93.7z" class="c"/><path d="M120 93.7c0 0 2.8 0.7 2.3-0.8C121.7 91.3 120 93.7 120 93.7z" class="c"/><path d="M116 87.7c0 0 0.4 2.8 1.3 4.2 0.8 1.3 2 1.8 3.7 2" class="b"/><circle cx="118.6" cy="96.1" r="0.3" class="b"/><path d="M116.1 93c0 0 0.3 2.1 2.3 3" class="b"/><path d="M112.1 93.7c0 0-2.9 0.2-1.9 1.5C111.2 96.5 112.1 93.7 112.1 93.7z" class="c"/><path d="M112.1 93.7c0 0-2.8 0.7-2.3-0.8C110.4 91.3 112.1 93.7 112.1 93.7z" class="c"/><path d="M116.1 87.7c0 0-0.4 2.8-1.3 4.2 -0.8 1.3-2 1.8-3.7 2" class="b"/><circle cx="113.5" cy="96.1" r="0.3" class="b"/><path d="M116 93c0 0-0.3 2.1-2.3 3" class="b"/><circle cx="116" cy="105.9" r="0.4" class="g"/><path d="M76.1 47.5l0.8 0.8 -0.4 6.2 0.4 1.6 1.6-0.4 1.6 0.4 0.8-0.8h1.2l0.8 0.8v1.2l-1.6 1.6h-0.4l-3.9-0.4 -0.4 0.4v10.9l1.2 3.9h1.5c2.3-1.6 3.5-4.2 3.5-7.8l1.6 1.2v2.3c-1.3 4.7-3.5 7-6.6 7l-0.4 0.4 -3.9-2c-1-1-1.5-3.4-1.5-7h0.4l-0.4-0.4v-6.6c-0.2-0.9-1.6-1.8-4.3-2.7v-0.4c1.1-1.2 2-1.9 2.7-2 1 0 2.2-2.7 3.5-8.2H76.1z" class="h"/><path d="M94.9 55.7h1.5c3.3 1.6 5.4 3.6 6.4 6v2.6c0 0.4-0.9 1-2.6 1.9h-0.7l-1.1-0.7h-6l-1.9 2.2v1.5c0.7 0 1.1 0.5 1.1 1.5 0.4 0 0.8 0.6 1.1 1.9l1.5 0.4c4-0.7 6-2 6-3.8 0.1-1 0.5-1.5 1.1-1.5h0.8l0.7 0.8v1.9c-0.6 2.2-2.8 4.3-6.7 6.4h-2.3c-2.7-1.1-4.3-2.2-4.9-3.4 -1.2 0-2.1-2.4-2.6-7.1l-0.4-0.4V65.5l0.8-1.1v-2.6C88.3 57.7 91 55.7 94.9 55.7zM90.4 60.9v0.8l1.9 2.2H93.4l3-1.5v-1.9c0-1.7-0.9-2.6-2.6-2.6H93.4C92.2 57.9 91.2 58.9 90.4 60.9z" class="h"/><path d="M114.3 54.8h0.4c4 1.5 6 3.5 6 6l0.4 0.4v6.4l0.4 2.6h0.4c0.8-2.2 1.4-3.4 1.9-3.4l1.1 1.9v3.4c-0.8 2.5-1.6 3.8-2.2 3.8l-1.9 0.8h-1.5c-1.3-0.7-1.9-1.5-1.9-2.3h-1.5v0.8l-3 0.8h-0.8c-4 0-6-1.9-6-5.7v-1.1c0-1.8 1.3-2.9 3.8-3.4v-0.8c-0.5 0-1.6-1.1-3.4-3.4v-1.5c1-3 2.9-4.5 5.6-4.5L114.3 54.8zM110.9 59.4l1.1 1.5v2.3c0 0.5-0.4 0.8-1.1 0.8l1.1 1.1c2.5-1 3.9-1.9 4.2-2.6v-0.7c0-1.8-0.6-3-1.9-3.4h-2.3L110.9 59.4zM113.2 66.5c0 0.6-0.6 1.2-1.9 1.9l-0.4 0.4v3.4l1.9 0.4h0.4c2-1 3-3 3-6l-0.4-0.4 -0.4 0.4H113.2z" class="h"/><path d="M131.7 54.6l0.4 0.4h0.4l1.9-0.4 3.1 1.5 1.9-1.1h0.4c0.6 0 1 1 1.1 3l-0.4 3.1 0.4 2.7 -1.1 0.4v1.2c1.8 1.1 2.6 2.7 2.6 4.9 -0.8 4.1-2.5 6.1-4.9 6.1l-1.5 0.4 -4.6-1.5h-0.8l-1.1 0.7h-0.8l-1.5-1.5v-6.5l1.1-1.1h1.1c0.5 0 0.9 1 1.1 3 0.9 1.9 2.1 3.3 3.4 4.2h3.4l2.3-2.3v-0.4c-1-2.5-3-3.8-6.1-3.8 -3.2-1-5-2.2-5.3-3.4l-0.8-1.9 -0.4-0.4v-0.4l1.1-3.8L131.7 54.6zM131 58.8v1.1c0 1.8 1 2.7 3.1 2.7 0 0.4 1.3 0.6 3.8 0.8l0.7-1.9 -1.9-2.7 -1.9-1.1h-1.5C131.7 57.8 131 58.2 131 58.8z" class="h"/><path d="M153.7 55.7h1.5c3.3 1.6 5.4 3.6 6.4 6v2.6c0 0.4-0.9 1-2.6 1.9h-0.7l-1.1-0.7h-6l-1.9 2.2v1.5c0.7 0 1.1 0.5 1.1 1.5 0.4 0 0.8 0.6 1.1 1.9l1.5 0.4c4-0.7 6-2 6-3.8 0.1-1 0.5-1.5 1.1-1.5h0.8l0.7 0.8v1.9c-0.6 2.2-2.8 4.3-6.7 6.4h-2.3c-2.7-1.1-4.3-2.2-4.9-3.4 -1.2 0-2.1-2.4-2.6-7.1l-0.4-0.4V65.5l0.8-1.1v-2.6C147.1 57.7 149.8 55.7 153.7 55.7zM149.2 60.9v0.8l1.9 2.2h1.1l3-1.5v-1.9c0-1.7-0.9-2.6-2.6-2.6h-0.4C151 57.9 150 58.9 149.2 60.9z" class="h"/></svg>
