<svg xmlns="http://www.w3.org/2000/svg" width="100%" height="100%" viewBox="0 0 36 38" preserveAspectRatio="xMidYMid meet"><style>.a{fill:none;stroke-width:0.6;stroke:#6d6e71;}.b{fill:#fff;stroke-width:0.6;stroke:#6d6e71;}.c{fill:#fff;stroke-width:0.6;stroke:#6d6e71;}.d{fill:#fff;stroke-width:0.6;stroke:#6d6e71;}.e{fill:#fff;stroke-width:0.6;stroke:#6d6e71;}.f{fill:#fff;stroke-width:0.3;stroke:#6d6e71;}</style><path d="M17.9 28c0 0 12-17.5 0-17.5C5.9 10.5 17.9 28 17.9 28z" class="a"/><path d="M30.1 19.6c0 0-5.8-9.7-8-7.1C19.9 15 30.1 19.6 30.1 19.6z" class="b"/><path d="M19.2 10c0 0 1.8 7.2 3.9 5.8C25.2 14.4 19.2 10 19.2 10z" class="c"/><path d="M19.2 10c0 0 7.6 0.5 6.6 2.7C24.7 14.9 19.2 10 19.2 10z" class="c"/><circle cx="34.1" cy="22.8" r="0.8" class="d"/><line x1="29.9" y1="19.3" x2="33.6" y2="22.2" class="a"/><circle cx="25.7" cy="26.9" r="0.8" class="d"/><circle cx="9.9" cy="26.9" r="0.8" class="d"/><path d="M6 19.6c0 0 5.8-9.7 8-7.1C16.3 15 6 19.6 6 19.6z" class="b"/><path d="M16.9 10c0 0-1.8 7.2-3.9 5.8S16.9 10 16.9 10z" class="c"/><path d="M16.9 10c0 0-7.6 0.5-6.6 2.7C11.4 14.9 16.9 10 16.9 10z" class="c"/><circle cx="2" cy="22.8" r="0.8" class="d"/><line x1="6.3" y1="19.3" x2="2.6" y2="22.2" class="a"/><line x1="17.9" y1="35.6" x2="17.9" y2="10.5" class="a"/><path d="M18 7c0 0 2-3 0-3C16 4 18 7 18 7z" class="c"/><path d="M18 7.5c0 0-4.4 6.5-2 7.2C18.3 15.3 18 7.5 18 7.5z" class="e"/><path d="M18 7.5c0 0 4.4 6.5 2 7.2C17.6 15.3 18 7.5 18 7.5z" class="e"/><circle cx="17.9" cy="36.1" r="0.8" class="d"/><path d="M17.9 30.9c0 0-0.3 3.6 1.5 2.6C21.2 32.6 17.9 30.9 17.9 30.9z" class="b"/><path d="M17.9 30.9c0 0 0.3 3.6-1.5 2.6C14.6 32.6 17.9 30.9 17.9 30.9z" class="b"/><path d="M17.7 6.7c0 0-1.6 2.2-4.5 2.4 -2.7 0.2-3.5-0.5-4.1-0.8 -0.5-0.3-1.2-1.2-1.2-2.2 0-1.3 0.5-1.9 1.4-2.2 0.6-0.2 1.8 0.3 2.2 1.1" class="a"/><path d="M11.5 4.8c0 0 2.5 2.7 2.9 0.7C14.9 3.5 11.5 4.8 11.5 4.8z" class="b"/><path d="M11.5 4.9c0 0 2.9 2.2 0.9 2.8C10.5 8.4 11.5 4.9 11.5 4.9z" class="b"/><path d="M18.2 6.7c0 0 1.6 2.2 4.5 2.4 2.7 0.2 3.5-0.5 4.1-0.8 0.5-0.3 1.2-1.2 1.2-2.2 0-1.3-0.5-1.9-1.4-2.2 -0.6-0.2-1.8 0.3-2.2 1.1" class="a"/><path d="M24.4 4.8c0 0-2.4 2.7-2.9 0.7C21 3.5 24.4 4.8 24.4 4.8z" class="b"/><path d="M24.4 4.9c0 0-2.9 2.2-0.9 2.8C25.4 8.4 24.4 4.9 24.4 4.9z" class="b"/><path d="M10.4 21.5c0 0-3.6-0.2-2.5 1.6C9 24.8 10.4 21.5 10.4 21.5z" class="e"/><path d="M10.4 21.4c0 0-3.6 0.5-2.7-1.3S10.4 21.4 10.4 21.4z" class="e"/><path d="M16.3 14.6c0 0-1 3.4-2.2 4.9 -1.2 1.5-2.7 1.9-4.8 2 -1.1 0-2.7-0.2-4-1 -1.3-0.7-1.8-1.4-2.3-2.2 -0.7-1.2-1-2.8-0.5-4.1 0.3-0.9 1.2-1.6 2.7-1.4 1.7 0.2 1.8 1.8 1.7 2.3 -0.1 0.6-1 1.4-1.7 0.7 -0.7-0.6-0.3-1.1-0.3-1.1" class="a"/><circle cx="4.9" cy="14.6" r="0.2" class="f"/><path d="M25.4 21.5c0 0 3.6-0.2 2.6 1.6C26.9 24.8 25.4 21.5 25.4 21.5z" class="e"/><path d="M25.4 21.4c0 0 3.6 0.5 2.7-1.3C27.1 18.2 25.4 21.4 25.4 21.4z" class="e"/><path d="M19.6 14.6c0 0 1 3.4 2.2 4.9 1.2 1.5 2.7 1.9 4.8 2 1.1 0 2.7-0.2 4-1 1.3-0.7 1.8-1.4 2.3-2.2 0.7-1.2 1-2.8 0.5-4.1 -0.3-0.9-1.2-1.6-2.7-1.4 -1.7 0.2-1.8 1.7-1.7 2.3 0.1 0.6 1 1.4 1.7 0.7 0.7-0.6 0.3-1.1 0.3-1.1" class="a"/><circle cx="30.9" cy="14.6" r="0.2" class="f"/><path d="M4.8 6.6c0 0-3.1-3.4-3.7-0.9C0.5 8.3 4.8 6.6 4.8 6.6z" class="d"/><path d="M4.8 6.6c0 0-3.6-2.8-1.2-3.6C6.1 2.2 4.8 6.6 4.8 6.6z" class="d"/><path d="M30.6 6.8c0 0 3.4-3.1 0.9-3.7C29 2.5 30.6 6.8 30.6 6.8z" class="d"/><path d="M30.7 6.8c0 0 2.8-3.6 3.6-1.2C35.1 8 30.7 6.8 30.7 6.8z" class="d"/><circle cx="8.2" cy="9.7" r="0.8" class="d"/><circle cx="27.6" cy="10" r="0.8" class="d"/><circle cx="5" cy="6.9" r="0.4" class="b"/><circle cx="6.5" cy="8.1" r="0.5" class="c"/><circle cx="29.1" cy="8.1" r="0.5" class="c"/><circle cx="30.4" cy="6.9" r="0.4" class="b"/><circle cx="13.6" cy="29.3" r="0.2" class="f"/><path d="M17.9 23.5c0 0 0.2 2.4-1.1 4.3 -1.3 1.8-2 2.1-2.5 2.3 -0.4 0.2-1.3 0.3-1.8-0.1 -0.6-0.4-0.9-1.1-0.5-1.7 0.4-0.7 2-0.8 1.8 0.7" class="a"/><circle cx="22.2" cy="29.3" r="0.2" class="f"/><path d="M17.9 23.5c0 0-0.2 2.4 1.1 4.3 1.3 1.8 2 2.1 2.5 2.3 0.4 0.2 1.3 0.3 1.8-0.1 0.6-0.4 0.9-1.1 0.5-1.7 -0.4-0.7-2-0.8-1.8 0.7" class="a"/><path d="M17.9 18c0 0-1.3 6.2-7.2 8.6" class="a"/><path d="M17.9 17.9c0 0 1.3 6.2 7.2 8.6" class="a"/><circle cx="31.9" cy="1.3" r="0.2" class="f"/><circle cx="3.2" cy="1.3" r="0.2" class="f"/></svg>
